<svg class="svg-drawing icon-chat" viewBox="0 0 44 37" version="1.1"><title></title><path d="M3.72653061,31.4343844 L3.72653061,35.3373705 C3.72653061,36.2606575 4.53469388,36.9741066 5.47755102,36.9741066 C5.92653061,36.9741066 6.3755102,36.8062362 6.73469388,36.5124631 L12.0326531,31.5602871 L28.0612245,31.5602871 C30.5755102,31.5602871 32.5959184,29.7137131 32.7306122,27.4474631 L30.0367347,24.9294075 L29.4979592,24.9294075 L29.4979592,27.1956575 C29.4979592,27.9091066 28.8693878,28.5386205 28.0612245,28.5386205 L10.6857143,28.5386205 L7.00408163,31.8960279 L7.00408163,28.4546853 L4.66938776,28.4546853 C3.90612245,28.4546853 3.23265306,27.867139 3.23265306,27.1117223 L3.23265306,13.8919307 C3.23265306,13.1784816 3.86122449,12.5489677 4.66938776,12.5489677 L7.49795918,12.5489677 L7.49795918,9.48533344 L4.66938776,9.48533344 C2.06530612,9.48533344 0,11.4578103 0,13.8499631 L0,27.0697547 C-4.9846748e-16,29.2520695 1.61632653,31.0147084 3.72653061,31.4343844 L3.72653061,31.4343844 Z M43.3714286,4.36528714 L43.3714286,17.5850788 C43.3714286,19.6834584 41.755102,21.4460973 39.644898,21.8657733 L39.644898,25.7687594 C39.644898,26.2304029 39.4204082,26.6500788 39.1061224,26.9858195 C38.7469388,27.2376251 38.2979592,27.4054955 37.8489796,27.4054955 C37.4,27.4054955 36.9510204,27.2376251 36.5918367,26.9018844 L31.3387755,21.991676 L15.3102041,21.991676 C12.7061224,21.991676 10.6408163,20.0191992 10.6408163,17.6270464 L10.6408163,4.36528714 C10.6408163,1.93116677 12.7510204,0.00065750939 15.3102041,0.00065750939 L38.6571429,0.00065750939 C41.2612245,-0.0413100832 43.3714286,1.93116677 43.3714286,4.36528714 L43.3714286,4.36528714 Z M38.6571429,3.02232418 L15.3102041,3.02232418 C14.5469388,3.02232418 13.8734694,3.60987047 13.8734694,4.36528714 L13.8734694,17.5850788 C13.8734694,18.2985279 14.5020408,18.9280418 15.3102041,18.9280418 L32.6857143,18.9280418 L36.3673469,22.3693844 L36.3673469,18.9280418 L38.7020408,18.9280418 C39.4653061,18.9280418 40.1387755,18.3404955 40.1387755,17.5850788 L40.1387755,4.36528714 C40.0938776,3.65183806 39.4653061,3.02232418 38.6571429,3.02232418 Z" id="Shape"></path></svg>