<?xml version="1.0" encoding="UTF-8" standalone="no"?>
<svg
   xmlns:dc="http://purl.org/dc/elements/1.1/"
   xmlns:cc="http://creativecommons.org/ns#"
   xmlns:rdf="http://www.w3.org/1999/02/22-rdf-syntax-ns#"
   xmlns:svg="http://www.w3.org/2000/svg"
   xmlns="http://www.w3.org/2000/svg"
   id="svg8"
   version="1.1"
   viewBox="0 0 110 110"
   height="110mm"
   width="110mm">

  <defs
     id="defs2" />
  <g
     transform="translate(0,-187)"
     id="layer1">
    <g
       id="g857">
      <g
         id="g827"
         transform="matrix(0.26458333,0,0,0.26458333,-12.548808,-15.283928)">
        <path
           id="path817"
           d="m 256,1172.688 c -111.1,0 -201.5,-90.4 -201.5,-201.49999 0,-111.1 90.4,-201.5 201.5,-201.5 111.1,0 201.5,90.4 201.5,201.5 0,111.09999 -90.4,201.49999 -201.5,201.49999 z m 0,-392.99999 c -105.6,0 -191.5,85.9 -191.5,191.5 0,105.59999 85.9,191.49999 191.5,191.49999 105.6,0 191.5,-85.9 191.5,-191.49999 0,-105.6 -85.9,-191.5 -191.5,-191.5 z"
           class="st0"
           style="fill:#292929;fill-opacity:1" />
        <g
           id="XMLID_597_"
           transform="translate(0,715.18801)">
          <g
             id="XMLID_600_">
            <g
               id="XMLID_601_">
              <path
                 id="XMLID_602_"
                 d="m 192.2,220 c 0,13.3 -9,24.1 -20.2,24.1 -11.1,0 -20.2,-10.8 -20.2,-24.1 0,-13.3 9,-24.1 20.2,-24.1 11.2,0 20.2,10.8 20.2,24.1 z"
                 class="st1"
              style="fill:#292929;fill-opacity:1" />
            </g>
          </g>
          <g
             id="XMLID_598_">
            <path
               id="XMLID_599_"
               d="m 353.4,244.3 c -1.6,0 -3.1,-0.6 -4.3,-1.7 -13.2,-12.1 -32.6,-2.6 -32.8,-2.5 -2.6,1.3 -5.7,0.7 -7.6,-1.5 -1.9,-2.2 -2.2,-5.3 -0.6,-7.8 9.9,-15.3 28,-24.3 46.2,-23 3.5,0.3 6.2,3.3 5.9,6.8 -0.3,3.5 -3.4,6.2 -6.8,5.9 -6,-0.4 -12,0.7 -17.5,3.1 7.2,0.5 15,3.1 22,9.4 2.6,2.4 2.8,6.5 0.4,9.1 -1.5,1.5 -3.2,2.2 -4.9,2.2 z"
               class="st1"
              style="fill:#292929;fill-opacity:1" />
          </g>
        </g>
        <g
           id="XMLID_595_"
           transform="translate(0,715.18801)">
          <path
             id="XMLID_596_"
             d="m 269.5,383.9 c -21.3,0 -42.2,-7.1 -59.1,-20.2 -4.2,-3.3 -4.9,-9.3 -1.7,-13.5 3.3,-4.2 9.3,-5 13.5,-1.7 14.1,11 31.7,16.7 49.6,16.1 42.5,-1.3 76,-36.9 74.7,-79.4 -0.2,-5.3 4,-9.7 9.3,-9.9 5.2,-0.3 9.7,4 9.9,9.3 1.6,53.1 -40.2,97.6 -93.3,99.2 -0.9,0.1 -1.9,0.1 -2.9,0.1 z"
             class="st1"
             style="fill:#292929;fill-opacity:1" />
        </g>
      </g>
    </g>
  </g>
</svg>
