<svg id="icon-favourite" viewBox="0 0 44 44"><path d="M30.444.762c7.247 0 12.88 6.637 12.88 13.933 0 4.373-3.406 9.438-9.149 14.941-2.044 1.96-4.275 3.861-6.567 5.653a86.28 86.28 0 0 1-3.865 2.866 2.869 2.869 0 0 1-3.27 0 86.277 86.277 0 0 1-3.865-2.866c-2.291-1.792-4.522-3.694-6.566-5.653C4.299 24.133.893 19.068.893 14.696.893 7.398 6.525.761 13.772.761c3.479 0 6.242 1.293 8.336 3.431C24.203 2.055 26.966.762 30.444.762zm-9.11 5.563c-1.813-2.214-4.283-3.563-7.562-3.563-6.063 0-10.879 5.675-10.879 11.933 0 3.648 3.164 8.353 8.532 13.497 1.992 1.909 4.173 3.768 6.415 5.521a84.318 84.318 0 0 0 3.773 2.798.869.869 0 0 0 .99 0 84.32 84.32 0 0 0 3.773-2.798c2.243-1.753 4.424-3.612 6.416-5.52 5.368-5.145 8.532-9.85 8.532-13.498 0-6.258-4.817-11.933-10.88-11.933-3.278 0-5.749 1.35-7.562 3.563l-.774.944-.773-.944z" fill-rule="nonzero"></path></svg>