
<svg width="88mm" height="12mm" version="1.1" viewBox="0 0 88 12" xmlns="http://www.w3.org/2000/svg" xmlns:cc="http://creativecommons.org/ns#" xmlns:dc="http://purl.org/dc/elements/1.1/" xmlns:rdf="http://www.w3.org/1999/02/22-rdf-syntax-ns#">
 <g transform="translate(0,-285)">
  <g transform="translate(.55337 -.047236)">
   <g transform="translate(-58.616 215.21)" font-family="'Futura Light'" font-size="8.9793px" letter-spacing="0px" stroke-width=".26458" word-spacing=".037042px" style="font-feature-settings:normal;font-variant-caps:normal;font-variant-ligatures:normal;font-variant-numeric:normal;line-height:1.25" aria-label="ateliere">
    <rect x="617.86" y="397.88" width="170.36" height="35.357"/>
    <rect x="605" y="430.73" width="160.71" height="57.143"/>
    <g transform="matrix(.91619 0 0 1.0214 -.026767 46.19)" style="font-feature-settings:normal;font-variant-caps:normal;font-variant-ligatures:normal;font-variant-numeric:normal" aria-label="IRINA LIPKi">
     <g stroke-width=".30076">
      <path d="m65.099 23.9v10.165h-0.33411v-10.165z"/>
      <path d="m69.927 24.208v6.7769h3.6752q1.5235 0 2.5927-0.98573 1.0825-0.99805 1.0825-2.4027t-1.0825-2.3904q-1.0691-0.99805-2.5927-0.99805zm-0.3341-0.30804h4.0093q1.6572 0 2.8332 1.0843 1.1761 1.0843 1.1761 2.6122t-1.1761 2.6122q-0.54793 0.50518-1.2028 0.77626l1.9244 3.0804h-0.40093l-1.8443-2.9572q-0.61475 0.18482-1.3097 0.18482h-3.6752v2.7724h-0.3341z"/>
      <path d="m82.116 23.9v10.165h-0.3341v-10.165z"/>
      <path d="m86.944 24.319v9.7464h-0.3341v-10.165h0.42765l7.6711 9.7464v-9.7464h0.33411v10.165h-0.42766z"/>
      <path d="m107.71 32.094-3.9825-7.8735-3.9825 7.8735zm-3.7687-8.1939 5.1452 10.165h-0.3742l-0.84195-1.6634h-8.2858l-0.84195 1.6634h-0.3742l5.1452-10.165z"/>
      <path d="m121.27 23.9h0.33412v9.8573h6.0139v0.30804h-6.348z"/>
      <path d="m130.79 23.9v10.165h-0.33411v-10.165z"/>
      <path d="m135.62 24.208v6.7769h3.3411q1.5235 0 2.5927-0.98573 1.0825-0.99805 1.0825-2.4027t-1.0825-2.3904q-1.0692-0.99805-2.5927-0.99805zm-0.3341-0.30804h3.6752q1.6572 0 2.8332 1.0843 1.176 1.0843 1.176 2.6122t-1.176 2.6122q-1.1761 1.0843-2.8332 1.0843h-3.3411v2.7724h-0.3341z"/>
      <path d="m147.13 23.9v10.165h-0.33411v-10.165zm1.7641 5.0765 3.9959 5.0888h-0.42765l-3.9959-5.0888 3.9959-5.0765h0.42765z"/>
     </g>
     <path d="m157.45 23.895v10.165h-0.33411v-10.165z" style="font-feature-settings:normal;font-variant-caps:normal;font-variant-ligatures:normal;font-variant-numeric:normal"/>
    </g>
   </g>
  </g>
 </g>
</svg>
