<svg class="svg-drawing contact-page-icons" viewBox="0 0 41 60"><defs><path id="a" d="M5.162 39a1.563 1.563 0 0 0-.792.862l-4.286 9.33a.92.92 0 0 0 .285 1.12l3.405 2.595c.283.18.579.339.884.477 7.008 3.152 18.437-6.125 24.938-20.276 4.572-9.953 5.896-20.183 3.454-26.699a8.68 8.68 0 0 0-4.4-5.206 6.816 6.816 0 0 0-.99-.356L23.49.02a.96.96 0 0 0-1.062.533l-4.287 9.331c-.205.35-.244.774-.107 1.157l4.746 2.127.092.046a6.252 6.252 0 0 1 3.154 3.598c.952 3.04.692 6.33-.727 9.181l-3.962 8.621c-2.49 5.423-7.503 8.292-11.39 6.542l-4.786-2.155z"></path></defs><g fill="none" fill-rule="evenodd"><g transform="matrix(-1 0 0 1 37.256 3)"><use fill="#FFF"></use><path stroke="#333" stroke-width="3" d="M2.989 39.276l-4.268 9.29a2.422 2.422 0 0 0 .749 2.947L2.865 54.1l.106.074c.342.216.699.409 1.067.576 8.027 3.61 20.123-6.22 26.921-21.015 4.724-10.286 6.099-20.907 3.496-27.852-.787-2.568-2.65-4.774-5.131-6.02A8.39 8.39 0 0 0 28.056-.6l-.104-.024-4.169-.828a2.457 2.457 0 0 0-2.712 1.37l-4.266 9.285a2.872 2.872 0 0 0-.182 2.344l.215.601.583.261 4.734 2.122.026.014a4.773 4.773 0 0 1 2.425 2.749 10.813 10.813 0 0 1-.65 8.03l-3.98 8.664c-2.181 4.748-6.389 7.162-9.412 5.8l-4.786-2.155-.634-.285-.627.298a3.063 3.063 0 0 0-1.528 1.63z"></path></g><path stroke="#333" stroke-linecap="square" stroke-width="2" d="M7.5 5.5l6 13M27.5 44.5l6 13"></path></g></svg>