

<svg width="115mm" height="37mm" version="1.1" viewBox="0 0 115 37" xmlns="http://www.w3.org/2000/svg" xmlns:cc="http://creativecommons.org/ns#" xmlns:dc="http://purl.org/dc/elements/1.1/" xmlns:osb="http://www.openswatchbook.org/uri/2009/osb" xmlns:rdf="http://www.w3.org/1999/02/22-rdf-syntax-ns#">
 <g transform="translate(0,-260)">
  <g transform="translate(.15569 .083841)">
   <g transform="translate(.83702 -.56062)">
    <g transform="translate(-.022451 .29442)">
    <rect x="216.46" y="84.904" width="147.56" height="42.243"/>
     <g transform="matrix(.99596 0 0 1.0185 .022153 263.37)">
      <path class="path2" d="m12.444 15.348c-2.941 0-5.317-2.197-5.317-4.916s2.376-4.916 5.317-4.916 5.317 2.197 5.317 4.916-2.376 4.916-5.317 4.916zm0-8.264c-2.036 0-3.62 1.464-3.62 3.347s1.584 3.347 3.62 3.347 3.62-1.464 3.62-3.347-1.697-3.347-3.62-3.347z"/>
     </g>
      <rect x="98.864" y="27.237" width="273.14" height="46.467"/>
      <rect x="117.68" y="34.813" width="109.6" height="62.124"/>
      <rect x="186.88" y="34.813" width="118.19" height="63.135"/>
      <rect x="134.35" y="-18.22" width="205.06" height="129.8"/>
      <rect x="97.985" y="45.42" width="39.396" height="66.67"/>
      <rect x="123.74" y="78.755" width="189.4" height="40.911"/>
    <path class="path1" transform="matrix(.99596 0 0 1.0185 .022153 263.37)" d="m12.444 31.979c-0.226 0-0.566-0.105-0.679-0.314-0.453-0.628-11.2-14.749-11.2-20.606 0-6.067 5.317-10.983 11.879-10.983s11.579 5.0936 11.579 11.161c0 5.858-10.447 19.801-10.9 20.324-0.113 0.209-0.453 0.418-0.679 0.418zm0-30.334c-5.657 0-10.182 4.289-10.182 9.414 0 4.498 7.806 15.481 10.182 18.723 2.376-3.243 10.182-14.226 10.182-18.723 0-5.23-4.525-9.414-10.182-9.414z"/>
     <g transform="scale(.87698 1.1403)">
      <path d="m38.055 245.53q-0.40339 0.17602-0.73343 0.33004-0.32271 0.15403-0.85078 0.32271-0.4474 0.13936-0.97547 0.2347-0.52074 0.10268-1.1515 0.10268-1.1882 0-2.1636-0.33004-0.96813-0.33738-1.6869-1.0488-0.7041-0.69676-1.1002-1.7676-0.39605-1.0781-0.39605-2.501 0-1.3495 0.38139-2.413 0.38138-1.0635 1.1002-1.7969 0.69676-0.71143 1.6796-1.0855 0.99014-0.37405 2.193-0.37405 0.88012 0 1.7529 0.21269 0.88012 0.2127 1.9509 0.74811v1.7236h-0.11002q-0.90212-0.75544-1.7896-1.1002-0.88746-0.34472-1.8996-0.34472-0.82878 0-1.4962 0.27137-0.66009 0.26404-1.1808 0.82878-0.50607 0.55008-0.79211 1.3935-0.2787 0.83611-0.2787 1.9363 0 1.1515 0.30804 1.9803 0.31538 0.82879 0.80678 1.3495 0.5134 0.54274 1.1955 0.80678 0.68943 0.2567 1.4522 0.2567 1.0488 0 1.9656-0.35938t1.7162-1.0782h0.10268z"/>
      <path d="m48.734 246.32h-1.5475l-1.0708-3.0438h-4.7233l-1.0708 3.0438h-1.4742l3.9752-10.921h1.9363zm-3.0658-4.2906-1.9143-5.3614-1.9216 5.3614z"/>
      <path d="m60.117 246.32h-1.4522v-9.41l-3.0364 6.4029h-0.86545l-3.0144-6.4029v9.41h-1.3569v-10.921h1.9803l2.9117 6.0802 2.8164-6.0802h2.0169z"/>
      <path d="m71.207 236.66q0.66742 0.73343 1.0195 1.7969 0.35938 1.0635 0.35938 2.413t-0.36672 2.4203q-0.35938 1.0635-1.0121 1.7749-0.67476 0.74077-1.5989 1.1148-0.91679 0.37405-2.0976 0.37405-1.1515 0-2.0976-0.38138-0.9388-0.38139-1.5989-1.1075-0.66009-0.7261-1.0195-1.7822-0.35205-1.0562-0.35205-2.413 0-1.3348 0.35205-2.391 0.35205-1.0635 1.0268-1.8189 0.64542-0.71877 1.5989-1.1002 0.9608-0.38139 2.0903-0.38139 1.1735 0 2.105 0.38872 0.9388 0.38139 1.5916 1.0928zm-0.13202 4.2099q0-2.127-0.95346-3.2784-0.95346-1.1588-2.6037-1.1588-1.6649 0-2.6184 1.1588-0.94613 1.1515-0.94613 3.2784 0 2.149 0.96813 3.2931 0.96813 1.1368 2.5964 1.1368 1.6282 0 2.589-1.1368 0.96813-1.1442 0.96813-3.2931z"/>
      <path d="m83.125 242.96q0 0.81411-0.30804 1.4375-0.30804 0.62342-0.82878 1.0268-0.61608 0.48406-1.3569 0.68943-0.73343 0.20536-1.8703 0.20536h-3.8725v-10.921h3.2344q1.1955 0 1.7896 0.088 0.59408 0.088 1.1368 0.36671 0.60142 0.31538 0.87279 0.81412 0.27137 0.4914 0.27137 1.1808 0 0.77744-0.39606 1.3275-0.39605 0.54274-1.0561 0.87279v0.0587q1.1075 0.22737 1.7456 0.97547 0.63809 0.74077 0.63809 1.8776zm-2.4423-4.9213q0-0.39606-0.13202-0.66743t-0.42539-0.44006q-0.34471-0.19802-0.83612-0.24203-0.4914-0.0513-1.2175-0.0513h-1.7309v3.1538h1.8776q0.68209 0 1.0855-0.066 0.40339-0.0734 0.7481-0.29338 0.34471-0.22003 0.48407-0.56474 0.14669-0.35205 0.14669-0.82878zm0.93146 4.98q0-0.66009-0.19803-1.0488t-0.71877-0.66009q-0.35205-0.18335-0.85812-0.2347-0.49874-0.0587-1.2175-0.0587h-2.281v4.0632h1.9216q0.95346 0 1.5622-0.0953 0.60875-0.10268 0.99747-0.36672 0.41072-0.28604 0.60142-0.65276 0.19069-0.36671 0.19069-0.94613z"/>
      <path d="m91.838 242.97q0-0.55007-0.18336-0.96813-0.18336-0.41806-0.57208-0.67476-0.40339-0.27137-0.93146-0.33004-0.52807-0.0587-1.4889-0.0587h-2.0243v4.1439h1.9876q0.97547 0 1.4962-0.0953 0.52807-0.0953 0.92413-0.36672 0.41072-0.28604 0.60142-0.66742 0.19069-0.38872 0.19069-0.98281zm1.5182-0.0293q0 0.79211-0.31538 1.4375-0.30804 0.64542-0.82878 1.0488-0.61608 0.48406-1.3202 0.68943-0.7041 0.20536-1.8189 0.20536h-3.8872v-10.921h1.4522v4.2832h2.479q1.1148 0 1.8189 0.13202 0.7041 0.12468 1.3275 0.60875 0.55741 0.43272 0.82145 1.0708 0.27137 0.63809 0.27137 1.4449zm2.721 3.3811h-1.4522v-10.921h1.4522z"/>
      <path d="m107.24 242.96q0 0.81411-0.30804 1.4375-0.30805 0.62342-0.82878 1.0268-0.61609 0.48406-1.3569 0.68943-0.73343 0.20536-1.8702 0.20536h-3.8725v-10.921h3.2344q1.1955 0 1.7896 0.088t1.1368 0.36671q0.60142 0.31538 0.87279 0.81412 0.27137 0.4914 0.27137 1.1808 0 0.77744-0.39606 1.3275-0.39605 0.54274-1.0561 0.87279v0.0587q1.1075 0.22737 1.7456 0.97547 0.63809 0.74077 0.63809 1.8776zm-2.4423-4.9213q0-0.39606-0.13202-0.66743-0.13201-0.27137-0.42539-0.44006-0.34471-0.19802-0.83611-0.24203-0.4914-0.0513-1.2175-0.0513h-1.7309v3.1538h1.8776q0.6821 0 1.0855-0.066 0.40339-0.0734 0.7481-0.29338 0.34471-0.22003 0.48407-0.56474 0.14668-0.35205 0.14668-0.82878zm0.93146 4.98q0-0.66009-0.19802-1.0488-0.19803-0.38872-0.71877-0.66009-0.35205-0.18335-0.85812-0.2347-0.49873-0.0587-1.2175-0.0587h-2.281v4.0632h1.9216q0.95346 0 1.5622-0.0953 0.60876-0.10268 0.99748-0.36672 0.41072-0.28604 0.60141-0.65276 0.19069-0.36671 0.19069-0.94613z"/>
      <path d="m117.44 236.66q0.66742 0.73343 1.0195 1.7969 0.35938 1.0635 0.35938 2.413t-0.36671 2.4203q-0.35939 1.0635-1.0121 1.7749-0.67476 0.74077-1.5989 1.1148-0.91679 0.37405-2.0976 0.37405-1.1515 0-2.0976-0.38138-0.9388-0.38139-1.5989-1.1075t-1.0195-1.7822q-0.35205-1.0562-0.35205-2.413 0-1.3348 0.35205-2.391 0.35205-1.0635 1.0268-1.8189 0.64542-0.71877 1.5989-1.1002 0.9608-0.38139 2.0903-0.38139 1.1735 0 2.105 0.38872 0.93879 0.38139 1.5916 1.0928zm-0.13202 4.2099q0-2.127-0.95346-3.2784-0.95347-1.1588-2.6037-1.1588-1.6649 0-2.6184 1.1588-0.94613 1.1515-0.94613 3.2784 0 2.149 0.96813 3.2931 0.96813 1.1368 2.5964 1.1368 1.6282 0 2.589-1.1368 0.96813-1.1442 0.96813-3.2931z"/>
      <path d="m127.33 241.06q0.35205 0.30804 0.57942 0.78477 0.2347 0.4694 0.2347 1.2175 0 0.77011-0.33738 1.3935-0.33005 0.62341-0.84345 1.0635-0.58675 0.49874-1.4302 0.74811-0.84345 0.24936-1.8189 0.24936-1.0782 0-2.0023-0.19802-0.91679-0.20536-1.4595-0.42539v-1.6282h0.11001q0.7261 0.43273 1.6356 0.71143 0.91679 0.27137 1.7456 0.27137 0.52808 0 1.1442-0.15402t0.99747-0.45473q0.39605-0.33004 0.57208-0.73343 0.18336-0.41072 0.18336-0.91679 0-0.57942-0.22003-0.94613-0.22003-0.37405-0.59408-0.60142-0.37406-0.22003-0.90946-0.31537-0.52808-0.10269-1.1808-0.10269h-1.4742v-1.2395h1.3128q1.2688 0 2.039-0.46206 0.7701-0.4694 0.7701-1.3495 0-0.39606-0.19802-0.69676-0.1907-0.30071-0.52807-0.47674-0.33005-0.17602-0.74077-0.24936-0.40339-0.0807-0.9608-0.0807-0.57208 0-1.0562 0.11001-0.48406 0.11002-0.91679 0.25671-0.35205 0.12468-0.71876 0.31537-0.36672 0.1907-0.53541 0.28604h-0.0953v-1.6062q0.55008-0.2347 1.4595-0.43272 0.90945-0.19803 1.8336-0.19803 0.90212 0 1.5476 0.14669 0.65275 0.13935 1.2028 0.46206 0.57208 0.35205 0.87278 0.85078 0.30071 0.49874 0.30071 1.1588 0 0.93146-0.60141 1.5769-0.59408 0.64542-1.5109 0.84345v0.11002q0.38139 0.066 0.81411 0.24203 0.43273 0.16869 0.77744 0.4694z"/>
     </g>
     <g>
      <rect x="110.71" y="34.069" width="220" height="70.714"/>
      <rect x="53.929" y="18.355" width="250.36" height="109.29"/>
      <g transform="scale(.86077 1.1618)" stroke-width=".37299" style="font-feature-settings:normal;font-variant-caps:normal;font-variant-ligatures:normal;font-variant-numeric:normal" aria-label="г. ДНЕПР">
       <path d="m49.304 246.23h3.7765v0.92094h-2.6639v5.6431h-1.1125z"/>
       <path d="m52.703 252.79v-1.2671h1.2671v1.2671z"/>
       <path d="m60.374 243.73h5.5133v7.9918h0.81587v3.1831h-1.0693v-2.1138h-5.9892v2.1138h-1.0693v-3.1831h0.70461q1.094-1.6503 1.094-6.6691zm4.3142 1.0693h-3.1584v0.46356q0 1.1558-0.21015 3.1646-0.20397 2.0026-0.80968 3.2944h4.1782z"/>
       <path d="m68.168 252.79v-9.061h1.1991v3.7208h4.7098v-3.7208h1.1991v9.061h-1.1991v-4.2709h-4.7098v4.2709z"/>
       <path d="m77.303 252.79v-9.061h6.5516v1.0693h-5.3526v2.7752h5.0126v1.0631h-5.0126v3.0842h5.5627v1.0693z"/>
       <path d="m85.746 243.73h7.1265v9.061h-1.2053v-7.9918h-4.7221v7.9918h-1.1991z"/>
       <path d="m94.832 252.79v-9.061h3.418q0.9024 0 1.3783 0.0865 0.66752 0.11125 1.1187 0.42648 0.4512 0.30904 0.72315 0.87149 0.27814 0.56245 0.27814 1.2362 0 1.1558-0.73551 1.9593-0.73552 0.79733-2.6577 0.79733h-2.324v3.6838zm1.1991-4.753h2.3425q1.162 0 1.6503-0.43266 0.48828-0.43266 0.48828-1.2176 0-0.56863-0.2905-0.97038-0.28431-0.40794-0.75406-0.53773-0.30286-0.0804-1.1187-0.0804h-2.3178z"/>
      </g>
     </g>
     <g fill="#000000" letter-spacing="0px" word-spacing="0px">
      <text x="60.120663" y="287.72864" font-family="Arial" font-size="8.9793px" stroke-width=".26458" style="font-feature-settings:normal;font-variant-caps:normal;font-variant-ligatures:normal;font-variant-numeric:normal;line-height:1.25" xml:space="preserve"><tspan x="60.120663" y="295.92068" font-family="Arial" stroke-width=".26458"/></text>
      <g font-family="sans-serif">
       <rect x="221.43" y="97.998" width="31.429" height="38.929"/>
       <rect x="190" y="89.783" width="112.86" height="39.643"/>
       <text x="68.814117" y="294.24875" font-size="8.9793px" stroke-width=".26458" style="font-feature-settings:normal;font-variant-caps:normal;font-variant-ligatures:normal;font-variant-numeric:normal;line-height:1.25" xml:space="preserve"><tspan x="68.814117" y="302.4408" stroke-width=".26458"/></text>
      </g>
     </g>
    </g>
   </g>
  </g>
 </g>
</svg>
