<?xml version="1.0" encoding="UTF-8" standalone="no"?>
<svg
   xmlns:dc="http://purl.org/dc/elements/1.1/"
   xmlns:cc="http://creativecommons.org/ns#"
   xmlns:rdf="http://www.w3.org/1999/02/22-rdf-syntax-ns#"
   xmlns:svg="http://www.w3.org/2000/svg"
   xmlns="http://www.w3.org/2000/svg"
   id="svg8"
   version="1.1"
   viewBox="0 0 60 11"
   height="11mm"
   width="60mm">
  <defs
     id="defs2" />
  <metadata
     id="metadata5">
    <rdf:RDF>
      <cc:Work
         rdf:about="">
        <dc:format>image/svg+xml</dc:format>
        <dc:type
           rdf:resource="http://purl.org/dc/dcmitype/StillImage" />
        <dc:title></dc:title>
      </cc:Work>
    </rdf:RDF>
  </metadata>
  <g
     transform="translate(0,-286)"
     id="layer1">
    <g
       transform="matrix(1,0,0,1.0571119,1.1568514,-18.265854)"
       id="layer1-7">
      <g
         transform="matrix(0.35277777,0,0,-0.35277777,0.97402611,297.616)"
         id="g10">
        <g
           transform="scale(0.1)"
           id="g12">
          <path
             id="path26"
             style="fill:#57c035;fill-opacity:1;fill-rule:nonzero;stroke:none"
             d="m 246.65285,22.012119 h -38.887 c 0,105.162861 0,146.890831 0,137.414301 h 139.934 V 22.012119 h -38.864 V 132.73442 h -62.183 V 22.012119" />
          <path
             id="path28"
             style="fill:#57c035;fill-opacity:1;fill-rule:nonzero;stroke:none"
             d="m 400.68385,72.070419 c 0,27.86 17.207,33.364001 28.035,33.364001 10.613,0 27.813,-5.504001 27.813,-33.364001 0,-17.2888 -7.321,-33.7614 -27.813,-33.7614 -20.953,0 -28.035,16.4726 -28.035,33.7614 z m -34.16,49.672001 v 0 -136.038901 h 35.836 v 46.5547 c 11.988,-13.0235 31.551,-13.957 36.265,-13.957 34.145,0 55.102,21.7578 55.102,53.3982 0,32.961001 -20.688,53.778001 -54.395,53.778001 -8.484,0 -24.984,-1.395 -38.648,-15.727 h -0.711 l 0.246,11.992 h -33.695" />
          <path
             id="path30"
             style="fill:#57c035;fill-opacity:1;fill-rule:nonzero;stroke:none"
             d="m 582.55485,33.996519 c -13.207,-12.375 -25.922,-15.6953 -40.051,-15.6953 -38.621,0 -40.054,29.0234 -40.054,41.0234 v 62.417801 h 35.812 V 64.008419 c 0,-19.8127 6.828,-25.6994 20.051,-25.6994 22.582,0 24.242,20.2226 24.242,27.4804 v 55.953001 h 35.797 V 22.012119 h -35.797 v 11.9844" />
          <path
             id="path32"
             style="fill:#57c035;fill-opacity:1;fill-rule:nonzero;stroke:none"
             d="m 669.69985,101.69942 h 19.316 c 10.125,0 18.836,-1.554 18.836,-9.797001 0,-9.027 -13.648,-9.23 -19.551,-9.23 h -18.601 z m -35.805,20.043 v 0 -99.730301 h 71.125 c 25.926,0 43.832,5.1172 43.832,25.5156 0,15.7107 -8.731,22.5707 -28.516,26.1137 v 0.597 c 12.969,1.746 24.262,9.797 24.262,23.344 0,24.160001 -28.258,24.160001 -39.336,24.160001 z m 35.805,-57.734001 v 0 h 21.906 c 16.984,0 20.473,-5.0705 20.473,-11.758 0,-4.3164 -2.333,-10.2032 -20.012,-10.2032 h -22.367 v 21.9612" />
          <path
             id="path34"
             style="fill:#57c035;fill-opacity:1;fill-rule:nonzero;stroke:none"
             d="m 835.52785,63.238419 c 0,-20.031 -17.418,-24.9294 -26.145,-24.9294 -6.582,0 -18.371,2.1484 -18.371,11.5742 0,11.2112 13.414,13.3552 20.977,14.3512 13.871,1.957 12.711,1.36 23.539,5.266 z m -41.469,26.285 v 0 c 0,14.747001 15.531,15.911001 21.922,15.911001 4.008,0 18.844,-0.204 19.332,-13.141001 0,-0.984 0,-1.781 0,-2.77 -0.727,-9.808 -10.16,-7.824 -36.527,-11.171 -21.684,-2.938 -44.536,-8.446 -44.536,-31.2075 0,-8.2461 3.555,-28.8437 41.707,-28.8437 14.618,0 30.614,3.7109 40.051,13.5429 h 0.707 l 3.063,-9.832 h 37.664 v 1.7656 c -6.809,1.375 -7.281,8.0664 -7.043,18.8594 l 0.703,45.5393 c 0.242,11.554 -0.941,37.301001 -54.895,37.301001 -12.949,0 -54.621,-1.184 -56.3,-35.954001 h 34.152" />
          <path
             id="path36"
             style="fill:#57c035;fill-opacity:1;fill-rule:nonzero;stroke:none"
             d="m 875.11385,101.69942 v 20.043 h 114.937 v -20.043 h -39.58 V 22.012119 h -35.795 v 79.687301 h -39.562" />
          <path
             id="path38"
             style="fill:#57c035;fill-opacity:1;fill-rule:nonzero;stroke:none"
             d="m 1035.7508,81.699419 h 32.27 c 9.42,0 28.27,-1.015 28.27,-17.465 0,-12.9762 -13.67,-15.5075 -28.98,-15.5075 h -31.56 z m 0,51.035001 v 0 h 89.25 v 26.692 H 996.88085 V 22.012119 h 78.68995 c 38.16,0 62.65,13.332 62.65,41.3983 0,43.965001 -48.99,44.957001 -62.65,44.957001 h -39.82 v 24.367" />
          <path
             id="path40"
             style="fill:#57c035;fill-opacity:1;fill-rule:nonzero;stroke:none"
             d="m 1226.3008,63.238419 c 0,-20.031 -17.42,-24.9294 -26.13,-24.9294 -6.61,0 -18.39,2.1484 -18.39,11.5742 0,11.2112 13.43,13.3552 20.96,14.3512 13.9,1.957 12.73,1.36 23.56,5.266 z m -41.44,26.285 v 0 c 0,14.747001 15.54,15.911001 21.88,15.911001 4.03,0 18.88,-0.204 19.34,-13.141001 0,-0.984 0,-1.781 0,-2.77 -0.7,-9.808 -10.12,-7.824 -36.51,-11.171 -21.68,-2.938 -44.53,-8.446 -44.53,-31.2075 0,-8.2461 3.54,-28.8437 41.71,-28.8437 14.59,0 30.61,3.7109 40.03,13.5429 h 0.72 l 3.06,-9.832 h 37.69 v 1.7656 c -6.84,1.375 -7.31,8.0664 -7.07,18.8594 l 0.7,45.5393 c 0.23,11.554 -0.94,37.301001 -54.9,37.301001 -12.95,0 -54.63,-1.184 -56.29,-35.954001 h 34.17" />
          <path
             id="path42"
             style="fill:#57c035;fill-opacity:1;fill-rule:nonzero;stroke:none"
             d="m 1313.0008,22.012119 h -35.79 v 99.730301 h 35.79 V 84.230419 h 43.11 v 37.512001 h 35.81 V 22.012119 h -35.81 v 42.2223 h -43.11 v -42.2223" />
          <path
             id="path44"
             style="fill:#57c035;fill-opacity:1;fill-rule:nonzero;stroke:none"
             d="m 1482.3508,121.74242 h 39.84 l -49.26,-46.715001 51.6,-53.0153 h -41.93 l -38.64,43.5823 h -0.7 v -43.5823 h -35.81 v 99.730301 h 35.81 V 81.699419 h 0.7 l 38.39,40.043001" />
          <path
             id="path46"
             style="fill:#231f20;fill-opacity:1;fill-rule:nonzero;stroke:none"
             d="m -52.269314,21.668319 h 89.69926 v 89.672101 h -89.69926 V 21.668319" />
          <path
             id="path48"
             style="fill:#57c035;fill-opacity:1;fill-rule:nonzero;stroke:none"
             d="m -52.163844,251.01242 v -111.61 h 23.72659 c 62.3945,0 94.0551,-31.66 94.0551,-94.050501 v -23.7187 H 177.23485 V 251.01242 Z m 181.976694,-47.426 v 0 c 0,-30.473 0,-104.043001 0,-134.527001 -8.535,0 -10.016,0 -18.293,0 -7.887,66.531001 -49.727004,108.324001 -116.2540041,116.214001 0,8.305 0,9.778 0,18.313 30.4844001,0 104.0630001,0 134.5470041,0" />
        </g>
      </g>
    </g>
  </g>
</svg>
