<?xml version="1.0" encoding="UTF-8" standalone="no"?>
<!-- Generator: Adobe Illustrator 18.0.0, SVG Export Plug-In . SVG Version: 6.00 Build 0)  -->

<svg
   xmlns:dc="http://purl.org/dc/elements/1.1/"
   xmlns:cc="http://creativecommons.org/ns#"
   xmlns:rdf="http://www.w3.org/1999/02/22-rdf-syntax-ns#"
   xmlns:svg="http://www.w3.org/2000/svg"
   xmlns="http://www.w3.org/2000/svg"
   xmlns:sodipodi="http://sodipodi.sourceforge.net/DTD/sodipodi-0.dtd"
   xmlns:inkscape="http://www.inkscape.org/namespaces/inkscape"
   version="1.1"
   id="Capa_1"
   x="0px"
   y="0px"
   viewBox="0 0 320 80"
   xml:space="preserve"
   sodipodi:docname="ruler.svg"
   width="320"
   height="80"
   inkscape:version="0.92.2 (5c3e80d, 2017-08-06)"><metadata
     id="metadata86"><rdf:RDF><cc:Work
         rdf:about=""><dc:format>image/svg+xml</dc:format><dc:type
           rdf:resource="http://purl.org/dc/dcmitype/StillImage" /><dc:title></dc:title></cc:Work></rdf:RDF></metadata><defs
     id="defs84" /><sodipodi:namedview
     pagecolor="#ffffff"
     bordercolor="#666666"
     borderopacity="1"
     objecttolerance="10"
     gridtolerance="10"
     guidetolerance="10"
     inkscape:pageopacity="0"
     inkscape:pageshadow="2"
     inkscape:window-width="1920"
     inkscape:window-height="1014"
     id="namedview82"
     showgrid="false"
     inkscape:zoom="2.6375"
     inkscape:cx="95.545024"
     inkscape:cy="126.25616"
     inkscape:window-x="-8"
     inkscape:window-y="-8"
     inkscape:window-maximized="1"
     inkscape:current-layer="Capa_1" /><polygon
     points="172.886,203.567 179.022,197.431 158.772,177.181 164.909,171.045 185.158,191.294 191.294,185.159 171.044,164.909 177.181,158.773 197.43,179.022 203.566,172.886 183.317,152.638 189.454,146.501 209.703,166.749 215.839,160.614 187.306,132.081 193.442,125.945 221.975,154.477 228.111,148.342 207.861,128.092 213.998,121.956 234.248,142.205 240.383,136.07 220.135,115.82 226.271,109.685 246.518,129.934 252.656,123.797 232.406,103.548 238.543,97.411 258.793,117.66 264.928,111.525 236.395,82.991 242.531,76.855 271.064,105.389 277.199,99.253 256.95,79.003 263.087,72.867 283.336,93.116 289.473,86.979 269.224,66.731 275.36,60.595 295.609,80.843 301.746,74.707 281.496,54.458 287.633,48.322 307.881,68.57 320,56.452 263.547,0 0,263.547 56.453,320 68.57,307.883 40.039,279.349 46.176,273.213 74.707,301.746 80.844,295.609 60.595,275.36 66.731,269.225 86.98,289.473 93.116,283.337 72.866,263.087 79.003,256.951 99.253,277.2 105.389,271.065 85.138,250.815 91.274,244.679 111.525,264.929 117.66,258.792 89.128,230.26 95.265,224.124 123.797,252.656 129.934,246.52 109.684,226.271 115.82,220.135 136.07,240.383 142.205,234.248 121.954,213.997 128.091,207.86 148.342,228.111 154.477,221.977 134.229,201.727 140.365,195.591 160.613,215.84 166.749,209.704 138.216,181.171 144.352,175.034 "
     id="polygon49"
     transform="matrix(0.60064828,0.68695851,-0.60064828,0.68695851,160.37884,-179.63729)" /><g
     id="g51"
     transform="translate(0,-240)" /><g
     id="g53"
     transform="translate(0,-240)" /><g
     id="g55"
     transform="translate(0,-240)" /><g
     id="g57"
     transform="translate(0,-240)" /><g
     id="g59"
     transform="translate(0,-240)" /><g
     id="g61"
     transform="translate(0,-240)" /><g
     id="g63"
     transform="translate(0,-240)" /><g
     id="g65"
     transform="translate(0,-240)" /><g
     id="g67"
     transform="translate(0,-240)" /><g
     id="g69"
     transform="translate(0,-240)" /><g
     id="g71"
     transform="translate(0,-240)" /><g
     id="g73"
     transform="translate(0,-240)" /><g
     id="g75"
     transform="translate(0,-240)" /><g
     id="g77"
     transform="translate(0,-240)" /><g
     id="g79"
     transform="translate(0,-240)" /></svg>