<?xml version="1.0" encoding="UTF-8" standalone="no"?>
<svg
   xmlns:dc="http://purl.org/dc/elements/1.1/"
   xmlns:cc="http://creativecommons.org/ns#"
   xmlns:rdf="http://www.w3.org/1999/02/22-rdf-syntax-ns#"
   xmlns:svg="http://www.w3.org/2000/svg"
   xmlns="http://www.w3.org/2000/svg"
   id="svg8"
   version="1.1"
   viewBox="0 0 83 83"
   height="83mm"
   width="83mm">
  <defs
     id="defs2" />
  <metadata
     id="metadata5">
    <rdf:RDF>
      <cc:Work
         rdf:about="">
        <dc:format>image/svg+xml</dc:format>
        <dc:type
           rdf:resource="http://purl.org/dc/dcmitype/StillImage" />
        <dc:title></dc:title>
      </cc:Work>
    </rdf:RDF>
  </metadata>
  <g
     transform="translate(0,-214)"
     id="layer1">
    <g
       id="g4594">
      <g
         id="g870"
         transform="matrix(1.5096889,0,0,1.4491932,2.619744,216.97878)">
        <path
           id="path815"
           d="M 51.704,51.273 36.845,35.82 c 3.79,-3.801 6.138,-9.041 6.138,-14.82 0,-11.58 -9.42,-21 -21,-21 -11.58,0 -21,9.42 -21,21 0,11.58 9.42,21 21,21 5.083,0 9.748,-1.817 13.384,-4.832 l 14.895,15.491 c 0.196,0.205 0.458,0.307 0.721,0.307 0.25,0 0.499,-0.093 0.693,-0.279 0.398,-0.383 0.41,-1.016 0.028,-1.414 z M 21.983,40 c -10.477,0 -19,-8.523 -19,-19 0,-10.477 8.523,-19 19,-19 10.477,0 19,8.523 19,19 0,10.477 -8.524,19 -19,19 z" />
        <g
           id="g817" />
        <g
           id="g819" />
        <g
           id="g821" />
        <g
           id="g823" />
        <g
           id="g825" />
        <g
           id="g827" />
        <g
           id="g829" />
        <g
           id="g831" />
        <g
           id="g833" />
        <g
           id="g835" />
        <g
           id="g837" />
        <g
           id="g839" />
        <g
           id="g841" />
        <g
           id="g843" />
        <g
           id="g845" />
      </g>
      <path
         style="stroke-width:0.52520454"
         d="m 38.499723,223.7116 c -0.398692,0.12736 -0.711566,0.47753 -0.766756,0.91209 L 35.059271,245.677 13.91263,243.88212 c -0.58239,-0.0491 -1.11379,0.38055 -1.187819,0.96029 -0.07368,0.58012 0.338505,1.09055 0.921184,1.14002 l 20.988822,1.78123 -2.652524,20.88167 c -0.0737,0.58015 0.338472,1.09056 0.921184,1.14002 0.291294,0.0251 0.569885,-0.0705 0.78464,-0.24414 0.215192,-0.17397 0.366644,-0.42612 0.403182,-0.71614 l 2.672702,-21.03912 21.131958,1.79401 c 0.291699,0.0247 0.569875,-0.0705 0.784634,-0.24415 0.214765,-0.17363 0.36665,-0.4261 0.403182,-0.71614 0.07369,-0.58014 -0.338844,-1.08992 -0.921546,-1.13939 l -20.973774,-1.781 2.654012,-20.896 c 0.07369,-0.58013 -0.338854,-1.08992 -0.921549,-1.13939 -0.145595,-0.0123 -0.288297,0.005 -0.421195,0.0477 z"
         id="path4561" />
    </g>
  </g>
</svg>
