<?xml version="1.0" encoding="UTF-8" standalone="no"?>
<!-- Created with Inkscape (http://www.inkscape.org/) -->

<svg
   xmlns:dc="http://purl.org/dc/elements/1.1/"
   xmlns:cc="http://creativecommons.org/ns#"
   xmlns:rdf="http://www.w3.org/1999/02/22-rdf-syntax-ns#"
   xmlns:svg="http://www.w3.org/2000/svg"
   xmlns="http://www.w3.org/2000/svg"
   xmlns:sodipodi="http://sodipodi.sourceforge.net/DTD/sodipodi-0.dtd"
   xmlns:inkscape="http://www.inkscape.org/namespaces/inkscape"
   width="157mm"
   height="43mm"
   viewBox="0 0 157 43"
   version="1.1"
   id="svg8"
   inkscape:version="0.92.2 (5c3e80d, 2017-08-06)"
   sodipodi:docname="drawing.svg">
  <defs
     id="defs2" />
  <sodipodi:namedview
     id="base"
     pagecolor="#ffffff"
     bordercolor="#666666"
     borderopacity="1.0"
     inkscape:pageopacity="0.0"
     inkscape:pageshadow="2"
     inkscape:zoom="0.98994949"
     inkscape:cx="293.4912"
     inkscape:cy="420.5941"
     inkscape:document-units="mm"
     inkscape:current-layer="layer1"
     showgrid="false"
     inkscape:window-width="1920"
     inkscape:window-height="1014"
     inkscape:window-x="-8"
     inkscape:window-y="-8"
     inkscape:window-maximized="1" />
  <metadata
     id="metadata5">
    <rdf:RDF>
      <cc:Work
         rdf:about="">
        <dc:format>image/svg+xml</dc:format>
        <dc:type
           rdf:resource="http://purl.org/dc/dcmitype/StillImage" />
        <dc:title></dc:title>
      </cc:Work>
    </rdf:RDF>
  </metadata>
  <g
     inkscape:label="Layer 1"
     inkscape:groupmode="layer"
     id="layer1"
     transform="translate(0,-254)"
     style="display:inline">
    <path
       style="fill:#000000;stroke-width:0.24290799"
       d="m 53.009806,270.70254 -7.025199,12.61528 7.025199,-12.61528 -2.50167,0.1496 v 0 0 c -2.138582,3.49503 -3.904854,6.90825 -3.904854,6.90825 v 0 l -4.314107,-7.03046 -0.0018,-0.006 -2.464522,10e-4 5.507948,9.09115 v 0 0 l -1.80133,3.57602 2.455104,-0.0744 z m 4.743729,7.6692 1.922175,0.0314 4.508356,5.0112 v 0 l 3.198498,0.009 v 0 l -6.156481,-7.03749 v 0 0 l 5.371991,-5.63134 v 0 l -2.871376,-0.0246 -0.05212,0.016 -5.858051,5.36542 v 0 l -0.02958,-5.38139 h -2.414008 v 0 12.71008 0 h 2.414008 v 0 z m 14.022841,4.98726 0.01665,-3.35809 4.961982,-0.17562 c 0,0 0.878981,-0.003 1.678224,-0.5821 2.207294,-1.67073 2.763287,-5.73778 0.09391,-7.70123 -0.977482,-0.71898 -1.041691,-0.6915 -2.715,-0.73407 l -6.196567,-0.11101 v 0 12.74298 0 z m 0.09823,-5.46479 v 0 l 0.0343,-5.08673 3.870165,-0.004 c 2.029511,0.47114 2.554612,1.72051 2.519424,2.5689 -0.02395,0.57748 -0.703888,2.4656 -2.587496,2.34793 l -3.836397,0.17378 z m 13.673615,5.54539 -1.2e-4,-10.76852 6.39712,0.1364 v 0 l 0.1302,10.63247 v 0 h 2.16319 v 0 -12.71008 0 h -11.10444 v 0 l 0.0783,12.74793 z m 18.389719,0.60901 c 4.26084,-0.0669 6.27558,-3.01907 6.34645,-6.91645 -0.0237,-3.80949 -2.86744,-6.69928 -6.62779,-6.70556 -4.168439,-0.007 -6.643109,3.5597 -6.605149,7.13885 0.0532,5.01234 4.375989,6.5521 6.886489,6.48316 z m -4.530959,-7.06727 c 0.1244,-1.75123 1.435499,-3.95085 4.103379,-4.0949 2.64374,0.14771 4.32368,1.32417 4.47847,4.42316 -0.0724,2.99688 -0.94279,4.4513 -4.05528,4.65542 -3.30995,-0.0875 -4.790939,-2.61954 -4.526569,-4.98368 z m 29.593199,6.45856 7e-5,-12.71003 h -2.1632 l -0.1301,10.63247 v 0 0 h -4.34522 v 0 l -0.1302,-10.63247 v 0 h -2.16319 l 0.0952,10.58572 -4.80252,0.0467 v 0 l -0.1301,-10.63247 h -2.1632 v 12.71008 0 0 z m 9.1733,2e-5 v -10.75465 0 h 4.58661 v 0 -1.9554 0 h -11.34584 v 0 1.9554 l 4.52361,0.0692 0.063,10.68544 v 0 h 2.17261 z m 6.91933,-2.58614 0.0135,0.0197 7.03535,-0.0517 v 0 l 1.21347,2.61822 v 0 0 c 2.16171,-7.5e-4 -0.0709,0.0472 2.16171,-7.5e-4 l -5.26201,-12.73743 -2.82529,0.007 v 0 l -5.54911,12.70967 c 2.26338,0.0216 0.23233,0.0216 2.21548,0.0216 h 0.0479 z m 1.00789,-2.05747 2.68378,-6.05538 2.31179,5.99471 -4.99557,0.0607 z"
       id="path824"
       inkscape:connector-curvature="0"
       sodipodi:nodetypes="ccccccccccccccccccccccccccccccccccccccccccccscccccccccccsccccccccccccccccccssccccccccccccccccccccccccccscccccccccccccsscscccccccccccsccccc" />
    <g
       id="layer1-7"
       transform="translate(-1.9609398,-1.8953581)">
      <path
         style="fill:#ecd16f;stroke-width:0.20199463"
         d="m 20.757005,258.06765 c -1.550581,0.0145 -3.094115,0.14886 -4.180176,0.39895 -7.3143704,1.68377 -12.254192,6.42311 -13.0168823,12.48838 -0.3698364,2.94111 0.4382867,6.18353 2.138089,8.57936 0.4868393,0.68618 12.4573633,14.60299 14.4811343,16.83555 0.296879,0.32752 0.660002,0.59387 0.806868,0.59141 0.321997,-0.005 13.785268,-15.7032 13.82421,-16.11302 0.02849,-0.30004 -0.497044,-0.21931 -12.220986,-3.02896 -2.817054,-0.67509 -5.62312,-1.46162 -6.235522,-1.74779 -1.451096,-0.67813 -2.601918,-1.67397 -3.380621,-2.92465 -0.57601,-0.92515 -0.62767,-1.17304 -0.62767,-3.02599 0,-1.9055 0.04038,-2.08586 0.721842,-3.22566 0.86919,-1.45379 2.46086,-2.74011 4.240062,-3.42621 1.128105,-0.43501 1.540547,-0.49091 3.615143,-0.49091 2.196153,0 2.433945,0.037 3.8268,0.60077 1.74587,0.70656 3.307018,2.02652 4.16509,3.52157 0.502476,0.8755 0.578296,1.2481 0.578296,2.83992 0,1.60441 -0.07395,1.96252 -0.596583,2.87993 -0.683098,1.19909 -2.258781,2.66832 -3.407139,3.17714 -0.431253,0.19107 -0.784012,0.43819 -0.784012,0.54925 0,0.11108 1.816774,0.64543 4.037094,1.18748 l 4.036633,0.98567 0.53486,-0.54202 c 0.940125,-0.95261 2.257148,-3.32435 2.647363,-4.7674 0.280146,-1.03594 0.351448,-1.92864 0.274281,-3.44196 -0.178537,-3.50128 -1.558459,-6.07241 -4.559613,-8.49547 -1.816244,-1.4664 -4.229502,-2.57866 -6.697237,-3.08643 -1.113123,-0.22906 -2.670738,-0.3337 -4.221324,-0.31891 z"
         id="path4529"
         inkscape:connector-curvature="0" />
    </g>
  </g>
</svg>
