<svg class="svg-drawing icon-user-not-logged" viewBox="0 0 40 48"><g fill-rule="evenodd"><g fill-rule="nonzero"><path d="M27.681 27.743c-2.59-1.626-5.819-2.482-9.43-2.482h-1.944C7.04 25.261.698 30.915.698 39.284a1 1 0 1 0 2 0c0-7.21 5.4-12.023 13.609-12.023h1.944c3.248 0 6.109.759 8.367 2.176a1 1 0 1 0 1.063-1.694zM17.279 18.826c3.58 0 6.708-3.958 6.708-9.018 0-4.68-2.739-7.745-6.708-7.745-3.97 0-6.709 3.065-6.709 7.745 0 5.06 3.129 9.018 6.709 9.018zm0 2c-4.802 0-8.709-4.943-8.709-11.018C8.57 4.07 12.151.063 17.28.063c5.127 0 8.708 4.007 8.708 9.745 0 6.076-3.907 11.018-8.708 11.018z"></path><path d="M32.9 45a8.5 8.5 0 1 0 0-17 8.5 8.5 0 0 0 0 17zm0 2c-5.799 0-10.5-4.701-10.5-10.5S27.101 26 32.9 26s10.5 4.701 10.5 10.5S38.699 47 32.9 47z"></path></g><path d="M36.372 33.986c0 .442-.1.839-.298 1.19-.198.35-.568.72-1.11 1.107l-.52.376c-.31.223-.541.45-.694.677a1.458 1.458 0 0 0-.25.752h-1.825c.028-.465.159-.88.394-1.244.234-.365.58-.707 1.035-1.026.488-.337.832-.634 1.032-.892.2-.257.301-.543.301-.858 0-.4-.13-.717-.393-.95-.262-.232-.634-.348-1.118-.348-.46 0-.846.134-1.158.403-.312.269-.496.624-.55 1.066l-1.949-.082c.123-.925.504-1.645 1.142-2.16.638-.515 1.467-.772 2.488-.772 1.08 0 1.929.245 2.547.734.617.49.926 1.166.926 2.027zM31.62 41v-1.846h1.975V41h-1.975z"></path></g></svg>