<svg class="svg-drawing icon-user-logged" viewBox="0 0 40 48"><g fill-rule="nonzero"><path d="M32.05 32.975a12.67 12.67 0 0 0-1.558-2.418c-2.788-3.403-7.279-5.296-12.641-5.296h-1.944C6.64 25.261.298 30.915.298 39.284a1 1 0 1 0 2 0c0-7.21 5.4-12.023 13.609-12.023h1.944c4.792 0 8.707 1.65 11.094 4.563a10.67 10.67 0 0 1 1.313 2.038 1 1 0 0 0 1.793-.887zM16.879 18.826c3.58 0 6.708-3.958 6.708-9.018 0-4.68-2.739-7.745-6.708-7.745-3.97 0-6.709 3.065-6.709 7.745 0 5.06 3.129 9.018 6.709 9.018zm0 2c-4.802 0-8.709-4.943-8.709-11.018C8.17 4.07 11.751.063 16.88.063c5.127 0 8.708 4.007 8.708 9.745 0 6.076-3.907 11.018-8.708 11.018z"></path><path d="M23.7 37.405a1 1 0 0 0-1.4 1.428l7.94 7.786 14.879-14.913a1 1 0 1 0-1.416-1.412l-13.48 13.508-6.523-6.397z"></path></g></svg>