<svg id="icon-user" viewBox="0 0 35 41"><g fill-rule="nonzero"><path d="M33.26 39.284c0-8.37-6.342-14.023-15.61-14.023h-1.943C6.44 25.261.098 30.915.098 39.284a1 1 0 1 0 2 0c0-7.21 5.4-12.023 13.609-12.023h1.944c8.21 0 13.61 4.813 13.61 12.023a1 1 0 1 0 2 0zM16.679 18.826c3.58 0 6.708-3.958 6.708-9.018 0-4.68-2.739-7.745-6.708-7.745-3.97 0-6.709 3.065-6.709 7.745 0 5.06 3.129 9.018 6.709 9.018zm0 2c-4.802 0-8.709-4.943-8.709-11.018C7.97 4.07 11.551.063 16.68.063c5.127 0 8.708 4.007 8.708 9.745 0 6.076-3.907 11.018-8.708 11.018z"></path></g></svg>
